<?xml version="1.0" encoding="UTF-8" standalone="no"?>
<svg
   xmlns:dc="http://purl.org/dc/elements/1.1/"
   xmlns:cc="http://creativecommons.org/ns#"
   xmlns:rdf="http://www.w3.org/1999/02/22-rdf-syntax-ns#"
   xmlns:svg="http://www.w3.org/2000/svg"
   xmlns="http://www.w3.org/2000/svg"
   xmlns:sodipodi="http://sodipodi.sourceforge.net/DTD/sodipodi-0.dtd"
   xmlns:inkscape="http://www.inkscape.org/namespaces/inkscape"
   width="145.73019mm"
   height="118.47046mm"
   viewBox="0 0 145.73019 118.47046"
   version="1.1"
   id="svg1"
   xml:space="preserve"
   inkscape:export-filename="lighter grey.svg"
   inkscape:export-xdpi="96"
   inkscape:export-ydpi="96"
   sodipodi:docname="favicon.svg"
   inkscape:version="1.0.1 (3bc2e813f5, 2020-09-07)"><metadata
     id="metadata13"><rdf:RDF><cc:Work
         rdf:about=""><dc:format>image/svg+xml</dc:format><dc:type
           rdf:resource="http://purl.org/dc/dcmitype/StillImage" /><dc:title></dc:title></cc:Work></rdf:RDF></metadata><sodipodi:namedview
     id="namedview1"
     pagecolor="#505050"
     bordercolor="#eeeeee"
     borderopacity="1"
     inkscape:showpageshadow="0"
     inkscape:pageopacity="0"
     inkscape:pagecheckerboard="0"
     inkscape:deskcolor="#505050"
     inkscape:document-units="mm"
     inkscape:document-rotation="0"
     showgrid="false"
     inkscape:zoom="0.53039953"
     inkscape:cx="281.58154"
     inkscape:cy="384.38835"
     inkscape:window-width="1920"
     inkscape:window-height="1009"
     inkscape:window-x="-8"
     inkscape:window-y="-8"
     inkscape:window-maximized="1"
     inkscape:current-layer="layer1" /><defs
     id="defs1" /><g
     inkscape:label="Layer 1"
     inkscape:groupmode="layer"
     id="layer1"><g
       id="g220"
       transform="translate(-30.447334,-87.825205)"><g
         id="layer8-8"
         inkscape:label="good x"
         style="display:inline"><path
           style="fill:#000000;fill-opacity:1;stroke:#ffffff;stroke-width:0;stroke-dasharray:none;stroke-opacity:1"
           d="M 42.679514,204.86243 H 33.20747 l 5.165059,-7.34369 5.165093,-7.34369 16.218851,-23.09251 16.218815,-23.0925 -3.177687,-4.38717 -3.177652,-4.38715 L 54.500158,113.42154 39.380402,91.62732 37.750531,89.25837 h 9.579427 9.365738 l 14.143842,20.32361 14.143877,20.32362 0.520525,0.66721 0.468109,-0.56868 14.118361,-20.37285 14.11841,-20.37287 h 9.37069 9.60798 l -1.6235,2.36895 -15.14065,21.79422 -15.14063,21.79418 -3.168951,4.3833 -3.168947,4.38331 16.223008,23.09636 16.22297,23.09636 5.1581,7.34368 5.15812,7.34373 h -9.45176 -9.45174 l -16.34815,-23.24495 -16.348163,-23.24491 -0.557896,-0.7484 -0.898667,1.28089 -16.24952,22.97867 -16.249557,22.97867 z"
           id="path109-6"
           inkscape:label="good x"
           sodipodi:nodetypes="ccccccccccccccccccccccccccccccccccccccc" /></g><g
         id="layer7-7"
         inkscape:label="good y"
         style="display:inline"><path
           style="fill:#555555;fill-opacity:1;stroke:#ffffff;stroke-width:0;stroke-dasharray:none;stroke-opacity:1"
           d="m 52.076685,204.86236 21.645254,-30.59067 20.541466,-29.01053 0.647504,-0.90014 0.06711,-0.10325 -36.945712,-53.007542 -1.407154,-1.98095 h 10.373728 8.48122 l 29.153939,41.220752 28.48114,-41.220752 h 10.04702 9.49159 l -0.55547,0.97007 -30.94941,44.324892 -30.949421,44.32488 -9.087631,12.98798 -9.15062,12.98424 z"
           id="path105-5"
           inkscape:label="good y"
           sodipodi:nodetypes="ccccccccccccccccccc" /></g><g
         id="layer10-0"
         inkscape:label="good z"
         style="display:inline"><path
           style="display:inline;fill:#aaaaaa;stroke:#ffffff;stroke-width:0;stroke-dasharray:none;stroke-opacity:1"
           d="M 123.09508,204.8625 H 71.934219 l 69.643691,-99.48435 -0.50058,-0.004 H 106.96292 86.868361 L 75.477309,89.26577 h 47.660341 50.28926 l -69.17014,98.93964 34.53108,0.24865 35.57847,0.24865 v 8.04272 8.11677 z"
           id="path220-1"
           sodipodi:nodetypes="ccccccccccccccc"
           inkscape:label="good z" /></g></g></g></svg>
